<mxfile host="app.diagrams.net" modified="2023-03-17T18:52:59.826Z" agent="5.0 (Windows NT 10.0; Win64; x64) AppleWebKit/537.36 (KHTML, like Gecko) Chrome/110.0.0.0 Safari/537.36" etag="n9pWcYeYn-c6kdahFFs1" version="21.0.6" type="github">
  <diagram name="Page-1" id="dom_ONQLPfGAE_KSfMXB">
    <mxGraphModel dx="1783" dy="788" grid="1" gridSize="10" guides="1" tooltips="1" connect="1" arrows="1" fold="1" page="1" pageScale="1" pageWidth="827" pageHeight="1169" math="0" shadow="0">
      <root>
        <mxCell id="0" />
        <mxCell id="1" parent="0" />
        <mxCell id="PAVE9FlX5D9jsLE8WCEk-11" style="edgeStyle=orthogonalEdgeStyle;rounded=0;orthogonalLoop=1;jettySize=auto;html=1;exitX=0.5;exitY=1;exitDx=0;exitDy=0;entryX=0.5;entryY=0;entryDx=0;entryDy=0;endArrow=none;endFill=0;startArrow=ERmany;startFill=0;strokeWidth=1.25;" parent="1" source="B-Jphx4OP3Jhq67RXEfK-1" target="PAVE9FlX5D9jsLE8WCEk-3" edge="1">
          <mxGeometry relative="1" as="geometry" />
        </mxCell>
        <mxCell id="NzMGpS77SoHPdIjEXCKe-2" style="edgeStyle=orthogonalEdgeStyle;rounded=0;orthogonalLoop=1;jettySize=auto;html=1;exitX=0.5;exitY=0;exitDx=0;exitDy=0;entryX=1;entryY=0.5;entryDx=0;entryDy=0;endArrow=ERmany;endFill=0;startArrow=none;startFill=0;strokeWidth=1.25;" parent="1" source="B-Jphx4OP3Jhq67RXEfK-1" target="PAVE9FlX5D9jsLE8WCEk-41" edge="1">
          <mxGeometry relative="1" as="geometry" />
        </mxCell>
        <mxCell id="B-Jphx4OP3Jhq67RXEfK-1" value="Группа" style="swimlane;whiteSpace=wrap;html=1;startSize=23;strokeWidth=1.25;" parent="1" vertex="1">
          <mxGeometry x="284" y="250" width="130" height="90" as="geometry" />
        </mxCell>
        <mxCell id="PAVE9FlX5D9jsLE8WCEk-22" value="*номер&lt;br&gt;дата поездки" style="text;html=1;align=center;verticalAlign=middle;resizable=0;points=[];autosize=1;strokeColor=none;fillColor=none;strokeWidth=1.25;" parent="B-Jphx4OP3Jhq67RXEfK-1" vertex="1">
          <mxGeometry x="15" y="25" width="100" height="40" as="geometry" />
        </mxCell>
        <mxCell id="PAVE9FlX5D9jsLE8WCEk-66" style="edgeStyle=orthogonalEdgeStyle;rounded=0;orthogonalLoop=1;jettySize=auto;html=1;exitX=0.5;exitY=0;exitDx=0;exitDy=0;startArrow=none;startFill=0;endArrow=ERmany;endFill=0;entryX=0.5;entryY=1;entryDx=0;entryDy=0;strokeWidth=1.25;" parent="1" source="PAVE9FlX5D9jsLE8WCEk-2" target="PAVE9FlX5D9jsLE8WCEk-41" edge="1">
          <mxGeometry relative="1" as="geometry">
            <mxPoint x="220" y="200" as="targetPoint" />
          </mxGeometry>
        </mxCell>
        <mxCell id="PAVE9FlX5D9jsLE8WCEk-2" value="Клиент" style="swimlane;whiteSpace=wrap;html=1;startSize=23;strokeWidth=1.25;" parent="1" vertex="1">
          <mxGeometry x="85" y="240" width="160" height="110" as="geometry" />
        </mxCell>
        <mxCell id="PAVE9FlX5D9jsLE8WCEk-20" value="фио&lt;br&gt;адрес&lt;br&gt;*телефон&amp;nbsp;&lt;br&gt;дата рождения" style="text;html=1;align=center;verticalAlign=middle;resizable=0;points=[];autosize=1;strokeColor=none;fillColor=none;strokeWidth=1.25;" parent="PAVE9FlX5D9jsLE8WCEk-2" vertex="1">
          <mxGeometry x="25" y="30" width="110" height="70" as="geometry" />
        </mxCell>
        <mxCell id="PAVE9FlX5D9jsLE8WCEk-15" style="edgeStyle=orthogonalEdgeStyle;rounded=0;orthogonalLoop=1;jettySize=auto;html=1;exitX=0.5;exitY=1;exitDx=0;exitDy=0;entryX=0.5;entryY=0;entryDx=0;entryDy=0;startArrow=none;startFill=0;endArrow=ERmany;endFill=0;strokeWidth=1.25;" parent="1" source="PAVE9FlX5D9jsLE8WCEk-3" target="PAVE9FlX5D9jsLE8WCEk-8" edge="1">
          <mxGeometry relative="1" as="geometry" />
        </mxCell>
        <mxCell id="PAVE9FlX5D9jsLE8WCEk-3" value="Маршрут" style="swimlane;whiteSpace=wrap;html=1;strokeWidth=1.25;" parent="1" vertex="1">
          <mxGeometry x="284" y="420" width="130" height="120" as="geometry" />
        </mxCell>
        <mxCell id="PAVE9FlX5D9jsLE8WCEk-23" value="*название&lt;br&gt;стоимость&lt;br&gt;длительность&lt;br&gt;дата начала&lt;br&gt;дата окончания" style="text;html=1;align=center;verticalAlign=middle;resizable=0;points=[];autosize=1;strokeColor=none;fillColor=none;strokeWidth=1.25;" parent="PAVE9FlX5D9jsLE8WCEk-3" vertex="1">
          <mxGeometry x="10" y="15" width="110" height="90" as="geometry" />
        </mxCell>
        <mxCell id="htlLHrFRpJsP-b6ZbDhI-6" style="edgeStyle=orthogonalEdgeStyle;rounded=0;orthogonalLoop=1;jettySize=auto;html=1;exitX=0.5;exitY=0;exitDx=0;exitDy=0;entryX=0.5;entryY=1;entryDx=0;entryDy=0;endArrow=none;endFill=0;startArrow=ERmany;startFill=0;" edge="1" parent="1" source="PAVE9FlX5D9jsLE8WCEk-4" target="PAVE9FlX5D9jsLE8WCEk-2">
          <mxGeometry relative="1" as="geometry" />
        </mxCell>
        <mxCell id="PAVE9FlX5D9jsLE8WCEk-4" value="Договор" style="swimlane;whiteSpace=wrap;html=1;strokeWidth=1.25;" parent="1" vertex="1">
          <mxGeometry x="100" y="420" width="130" height="90" as="geometry" />
        </mxCell>
        <mxCell id="PAVE9FlX5D9jsLE8WCEk-24" value="*номер&lt;br&gt;дата заключения&lt;br&gt;вид оплаты" style="text;html=1;align=center;verticalAlign=middle;resizable=0;points=[];autosize=1;strokeColor=none;fillColor=none;strokeWidth=1.25;" parent="PAVE9FlX5D9jsLE8WCEk-4" vertex="1">
          <mxGeometry x="5" y="20" width="120" height="60" as="geometry" />
        </mxCell>
        <mxCell id="PAVE9FlX5D9jsLE8WCEk-5" value="Страна" style="swimlane;whiteSpace=wrap;html=1;strokeWidth=1.25;" parent="1" vertex="1">
          <mxGeometry x="520" y="370" width="130" height="90" as="geometry" />
        </mxCell>
        <mxCell id="PAVE9FlX5D9jsLE8WCEk-28" value="*название" style="text;html=1;align=center;verticalAlign=middle;resizable=0;points=[];autosize=1;strokeColor=none;fillColor=none;strokeWidth=1.25;" parent="PAVE9FlX5D9jsLE8WCEk-5" vertex="1">
          <mxGeometry x="25" y="20" width="80" height="30" as="geometry" />
        </mxCell>
        <mxCell id="PAVE9FlX5D9jsLE8WCEk-45" style="edgeStyle=orthogonalEdgeStyle;rounded=0;orthogonalLoop=1;jettySize=auto;html=1;exitX=0;exitY=1;exitDx=0;exitDy=0;startArrow=none;startFill=0;endArrow=ERmany;endFill=0;entryX=1;entryY=0.5;entryDx=0;entryDy=0;strokeWidth=1.25;" parent="1" source="PAVE9FlX5D9jsLE8WCEk-6" target="PAVE9FlX5D9jsLE8WCEk-8" edge="1">
          <mxGeometry relative="1" as="geometry">
            <mxPoint x="460" y="743" as="targetPoint" />
            <Array as="points">
              <mxPoint x="540" y="560" />
              <mxPoint x="540" y="740" />
            </Array>
          </mxGeometry>
        </mxCell>
        <mxCell id="NzMGpS77SoHPdIjEXCKe-5" style="edgeStyle=orthogonalEdgeStyle;rounded=0;orthogonalLoop=1;jettySize=auto;html=1;exitX=1;exitY=0.25;exitDx=0;exitDy=0;entryX=1;entryY=0.25;entryDx=0;entryDy=0;endArrow=none;endFill=0;startArrow=ERmany;startFill=0;strokeWidth=1.25;" parent="1" source="PAVE9FlX5D9jsLE8WCEk-6" target="PAVE9FlX5D9jsLE8WCEk-5" edge="1">
          <mxGeometry relative="1" as="geometry" />
        </mxCell>
        <mxCell id="PAVE9FlX5D9jsLE8WCEk-6" value="Город" style="swimlane;whiteSpace=wrap;html=1;strokeWidth=1.25;" parent="1" vertex="1">
          <mxGeometry x="520" y="470" width="130" height="90" as="geometry" />
        </mxCell>
        <mxCell id="PAVE9FlX5D9jsLE8WCEk-29" value="*название" style="text;html=1;align=center;verticalAlign=middle;resizable=0;points=[];autosize=1;strokeColor=none;fillColor=none;strokeWidth=1.25;" parent="PAVE9FlX5D9jsLE8WCEk-6" vertex="1">
          <mxGeometry x="25" y="20" width="80" height="30" as="geometry" />
        </mxCell>
        <mxCell id="PAVE9FlX5D9jsLE8WCEk-44" style="edgeStyle=orthogonalEdgeStyle;rounded=0;orthogonalLoop=1;jettySize=auto;html=1;exitX=0.5;exitY=0;exitDx=0;exitDy=0;startArrow=ERmany;startFill=0;endArrow=none;endFill=0;entryX=0.25;entryY=1;entryDx=0;entryDy=0;strokeWidth=1.25;" parent="1" source="PAVE9FlX5D9jsLE8WCEk-7" target="PAVE9FlX5D9jsLE8WCEk-6" edge="1">
          <mxGeometry relative="1" as="geometry">
            <mxPoint x="560" y="570" as="targetPoint" />
            <Array as="points">
              <mxPoint x="155" y="605" />
              <mxPoint x="570" y="605" />
              <mxPoint x="570" y="560" />
            </Array>
          </mxGeometry>
        </mxCell>
        <mxCell id="PAVE9FlX5D9jsLE8WCEk-7" value="Гостиница" style="swimlane;whiteSpace=wrap;html=1;startSize=23;strokeWidth=1.25;" parent="1" vertex="1">
          <mxGeometry x="90" y="630" width="130" height="90" as="geometry" />
        </mxCell>
        <mxCell id="PAVE9FlX5D9jsLE8WCEk-31" value="*название" style="text;html=1;align=center;verticalAlign=middle;resizable=0;points=[];autosize=1;strokeColor=none;fillColor=none;strokeWidth=1.25;" parent="PAVE9FlX5D9jsLE8WCEk-7" vertex="1">
          <mxGeometry x="25" y="25" width="80" height="30" as="geometry" />
        </mxCell>
        <mxCell id="PAVE9FlX5D9jsLE8WCEk-8" value="Пункт назначения" style="swimlane;whiteSpace=wrap;html=1;startSize=23;strokeWidth=1.25;" parent="1" vertex="1">
          <mxGeometry x="284" y="690" width="130" height="100" as="geometry" />
        </mxCell>
        <mxCell id="PAVE9FlX5D9jsLE8WCEk-30" value="*номер&lt;br&gt;длительность" style="text;html=1;align=center;verticalAlign=middle;resizable=0;points=[];autosize=1;strokeColor=none;fillColor=none;strokeWidth=1.25;" parent="PAVE9FlX5D9jsLE8WCEk-8" vertex="1">
          <mxGeometry x="15" y="25" width="100" height="40" as="geometry" />
        </mxCell>
        <mxCell id="NzMGpS77SoHPdIjEXCKe-3" style="edgeStyle=orthogonalEdgeStyle;rounded=0;orthogonalLoop=1;jettySize=auto;html=1;exitX=0.75;exitY=0;exitDx=0;exitDy=0;entryX=1;entryY=0.25;entryDx=0;entryDy=0;endArrow=ERmany;endFill=0;startArrow=ERmany;startFill=0;strokeWidth=1.25;" parent="1" source="PAVE9FlX5D9jsLE8WCEk-9" target="PAVE9FlX5D9jsLE8WCEk-41" edge="1">
          <mxGeometry relative="1" as="geometry">
            <mxPoint x="740" y="80" as="targetPoint" />
            <Array as="points">
              <mxPoint x="738" y="98" />
            </Array>
          </mxGeometry>
        </mxCell>
        <mxCell id="NzMGpS77SoHPdIjEXCKe-6" style="edgeStyle=orthogonalEdgeStyle;rounded=0;orthogonalLoop=1;jettySize=auto;html=1;exitX=0.5;exitY=0;exitDx=0;exitDy=0;entryX=0.75;entryY=1;entryDx=0;entryDy=0;endArrow=none;endFill=0;startArrow=ERmany;startFill=0;strokeWidth=1.25;" parent="1" source="PAVE9FlX5D9jsLE8WCEk-9" target="PAVE9FlX5D9jsLE8WCEk-6" edge="1">
          <mxGeometry relative="1" as="geometry" />
        </mxCell>
        <mxCell id="PAVE9FlX5D9jsLE8WCEk-9" value="Экскурсия" style="swimlane;whiteSpace=wrap;html=1;strokeWidth=1.25;" parent="1" vertex="1">
          <mxGeometry x="640" y="650" width="130" height="90" as="geometry">
            <mxRectangle x="510" y="520" width="100" height="30" as="alternateBounds" />
          </mxGeometry>
        </mxCell>
        <mxCell id="PAVE9FlX5D9jsLE8WCEk-32" value="*название&amp;nbsp;&lt;br&gt;дата" style="text;html=1;align=center;verticalAlign=middle;resizable=0;points=[];autosize=1;strokeColor=none;fillColor=none;strokeWidth=1.25;" parent="PAVE9FlX5D9jsLE8WCEk-9" vertex="1">
          <mxGeometry x="20" y="25" width="80" height="40" as="geometry" />
        </mxCell>
        <mxCell id="PAVE9FlX5D9jsLE8WCEk-41" value="Путевка" style="swimlane;whiteSpace=wrap;html=1;strokeWidth=1.25;" parent="1" vertex="1">
          <mxGeometry x="100" y="70" width="130" height="110" as="geometry" />
        </mxCell>
        <mxCell id="PAVE9FlX5D9jsLE8WCEk-55" value="&lt;br&gt;&lt;br&gt;*номер&lt;br&gt;стоимость" style="text;html=1;align=center;verticalAlign=middle;resizable=0;points=[];autosize=1;strokeColor=none;fillColor=none;strokeWidth=1.25;" parent="PAVE9FlX5D9jsLE8WCEk-41" vertex="1">
          <mxGeometry x="25" y="-10" width="80" height="70" as="geometry" />
        </mxCell>
        <mxCell id="PAVE9FlX5D9jsLE8WCEk-46" style="edgeStyle=orthogonalEdgeStyle;rounded=0;orthogonalLoop=1;jettySize=auto;html=1;exitX=0.5;exitY=0;exitDx=0;exitDy=0;entryX=0.5;entryY=1;entryDx=0;entryDy=0;startArrow=ERmany;startFill=0;endArrow=none;endFill=0;strokeWidth=1.25;" parent="1" source="PAVE9FlX5D9jsLE8WCEk-43" target="PAVE9FlX5D9jsLE8WCEk-7" edge="1">
          <mxGeometry relative="1" as="geometry" />
        </mxCell>
        <mxCell id="NzMGpS77SoHPdIjEXCKe-4" style="edgeStyle=orthogonalEdgeStyle;rounded=0;orthogonalLoop=1;jettySize=auto;html=1;exitX=0;exitY=0.5;exitDx=0;exitDy=0;entryX=0;entryY=0.25;entryDx=0;entryDy=0;endArrow=ERmany;endFill=0;startArrow=ERmany;startFill=0;strokeWidth=1.25;" parent="1" source="PAVE9FlX5D9jsLE8WCEk-43" target="PAVE9FlX5D9jsLE8WCEk-41" edge="1">
          <mxGeometry relative="1" as="geometry">
            <mxPoint x="20" y="80" as="targetPoint" />
            <Array as="points">
              <mxPoint x="30" y="810" />
              <mxPoint x="30" y="98" />
            </Array>
          </mxGeometry>
        </mxCell>
        <mxCell id="PAVE9FlX5D9jsLE8WCEk-43" value="Тип номера" style="swimlane;whiteSpace=wrap;html=1;strokeWidth=1.25;" parent="1" vertex="1">
          <mxGeometry x="90" y="770" width="130" height="80" as="geometry" />
        </mxCell>
        <mxCell id="PAVE9FlX5D9jsLE8WCEk-47" value="*название" style="text;html=1;align=center;verticalAlign=middle;resizable=0;points=[];autosize=1;strokeColor=none;fillColor=none;strokeWidth=1.25;" parent="PAVE9FlX5D9jsLE8WCEk-43" vertex="1">
          <mxGeometry x="25" y="20" width="80" height="30" as="geometry" />
        </mxCell>
        <mxCell id="NzMGpS77SoHPdIjEXCKe-1" style="edgeStyle=orthogonalEdgeStyle;rounded=0;orthogonalLoop=1;jettySize=auto;html=1;entryX=0;entryY=0.5;entryDx=0;entryDy=0;strokeWidth=1.25;endArrow=ERmany;endFill=0;" parent="1" target="PAVE9FlX5D9jsLE8WCEk-41" edge="1">
          <mxGeometry relative="1" as="geometry">
            <mxPoint x="60" y="130" as="targetPoint" />
            <mxPoint x="100" y="470" as="sourcePoint" />
            <Array as="points">
              <mxPoint x="50" y="470" />
              <mxPoint x="50" y="125" />
            </Array>
          </mxGeometry>
        </mxCell>
        <mxCell id="htlLHrFRpJsP-b6ZbDhI-9" value="&lt;font style=&quot;font-size: 18px;&quot;&gt;*&lt;/font&gt;" style="text;html=1;strokeColor=none;fillColor=none;align=center;verticalAlign=middle;whiteSpace=wrap;rounded=0;" vertex="1" parent="1">
          <mxGeometry x="330" y="660" width="60" height="30" as="geometry" />
        </mxCell>
        <mxCell id="htlLHrFRpJsP-b6ZbDhI-10" value="&lt;font style=&quot;font-size: 18px;&quot;&gt;*&lt;/font&gt;" style="text;html=1;strokeColor=none;fillColor=none;align=center;verticalAlign=middle;whiteSpace=wrap;rounded=0;" vertex="1" parent="1">
          <mxGeometry x="135" y="750" width="60" height="30" as="geometry" />
        </mxCell>
        <mxCell id="htlLHrFRpJsP-b6ZbDhI-11" value="&lt;font style=&quot;font-size: 18px;&quot;&gt;*&lt;/font&gt;" style="text;html=1;strokeColor=none;fillColor=none;align=center;verticalAlign=middle;whiteSpace=wrap;rounded=0;" vertex="1" parent="1">
          <mxGeometry x="120" y="600" width="60" height="30" as="geometry" />
        </mxCell>
        <mxCell id="htlLHrFRpJsP-b6ZbDhI-12" value="&lt;font style=&quot;font-size: 18px;&quot;&gt;*&lt;/font&gt;" style="text;html=1;strokeColor=none;fillColor=none;align=center;verticalAlign=middle;whiteSpace=wrap;rounded=0;" vertex="1" parent="1">
          <mxGeometry x="690" y="640" width="60" height="30" as="geometry" />
        </mxCell>
      </root>
    </mxGraphModel>
  </diagram>
</mxfile>
